<?xml version="1.0" encoding="utf-8"?>
<!-- Generator: Adobe Illustrator 25.4.2, SVG Export Plug-In . SVG Version: 6.00 Build 0)  -->
<svg version="1.1" id="Capa_1" xmlns="http://www.w3.org/2000/svg" xmlns:xlink="http://www.w3.org/1999/xlink" x="0px" y="0px"
	 viewBox="0 0 8192 1486.2" style="enable-background:new 0 0 8192 1486.2;" xml:space="preserve">
<style type="text/css">
	.st0{clip-path:url(#SVGID_00000034051056606365260240000008531291894972491161_);}
	.st1{fill:#6F6F6E;}
	.st2{fill:#575756;}
	.st3{fill:#2B2B2B;}
</style>
<g>
	<g>
		<g>
			<g>
				<g>
					<defs>
						<rect id="SVGID_1_" y="0" width="8192" height="1486.2"/>
					</defs>
					<clipPath id="SVGID_00000148655457730355989320000017380873362932836510_">
						<use xlink:href="#SVGID_1_"  style="overflow:visible;"/>
					</clipPath>
					<g style="clip-path:url(#SVGID_00000148655457730355989320000017380873362932836510_);">
						<path class="st1" d="M2494.5,1507.6h6056.7l32.5-613.2c0,0-1418.9-792.2-2885-496.6s-1844.5,981.3-3204.2,756.7L2494.5,1507.6
							L2494.5,1507.6z"/>
						<path class="st2" d="M8578.4,1429.3l-38-796.7c0,0-801.5,455.8-2828.8,78.6S902.7-561.8-228.8,695.5v733.8H8578.4z"/>
						<path class="st3" d="M-1288.3,1507.5h10296L8949,679.7c0,0-848.7,1053-3520.3,644.4S179.8-420.3-1281.7,1292.7
							C-1281.7,1292.7-1284.6,1378.6-1288.3,1507.5L-1288.3,1507.5z"/>
					</g>
				</g>
			</g>
		</g>
	</g>
</g>
</svg>
